<svg width="214" height="38" viewBox="0 0 214 38" fill="none" xmlns="http://www.w3.org/2000/svg">
<g clip-path="url(#clip0_1_438)">
<path d="M25.3635 10.1206L21.5392 14.7421C20.0104 13.2827 17.8344 12.3499 14.9761 12.3499C12.1178 12.3499 9.86206 13.5661 9.86206 15.9182C9.86206 17.5406 11.1094 18.3505 14.8939 19.163C21.2553 20.4594 23.5086 23.1777 23.5086 27.1923C23.5086 34.2888 17.4709 37.5712 11.0273 37.5712C5.99541 37.5712 2.45244 35.9087 -0.00498199 33.3534L3.81934 28.6492C5.47007 30.7581 8.56986 31.9342 11.468 31.9342C14.8889 31.9342 17.2244 30.5149 17.2244 28.2455C17.2244 26.583 15.9371 25.6501 12.2323 24.8803C5.62941 23.461 3.69734 20.5823 3.69734 16.8936C3.69734 11.056 8.52753 6.71533 15.2525 6.71533C19.8411 6.71533 23.2248 8.21487 25.3585 10.1206H25.3635Z" fill="black"/>
<path d="M28.5031 37.0445H22.5849L26.1677 16.4873H32.0859L28.5031 37.0445ZM33.7765 9.4736C33.7765 11.7028 31.8444 13.4883 29.7505 13.4883C27.8583 13.4883 26.7304 12.3523 26.7304 10.5694C26.7304 8.34017 28.5828 6.51465 30.7962 6.51465C32.6885 6.51465 33.7765 7.69071 33.7765 9.4736Z" fill="black"/>
<path d="M51.1278 19.7722C52.4972 18.1899 55.0742 16.0835 58.0918 16.0835C63.2457 16.0835 65.2176 20.1784 64.2515 25.5722L62.2398 37.0469H56.3216L58.3333 25.5321C58.7366 23.2602 58.0121 21.6804 56.0377 21.6804C54.0633 21.6804 52.6167 22.8565 51.6084 24.1128C51.5685 24.5993 51.5287 25.0857 51.4465 25.5722L49.4348 37.0469H43.5166L45.5283 25.5321C45.9317 23.2602 45.247 21.6804 43.3149 21.6804C41.221 21.6804 39.8939 22.8966 38.8855 24.193L36.6298 37.0469H30.7116L34.2944 16.4897H39.6076L39.4856 18.7616C40.4915 17.6257 42.4659 16.086 45.364 16.086C48.2621 16.086 50.2763 17.5053 51.1204 19.7747L51.1278 19.7722Z" fill="black"/>
<path d="M82.5689 37.0446H77.2557L77.3777 34.8153C76.3718 35.9513 74.3974 37.4508 71.4595 37.4508C66.3454 37.4508 64.3337 33.3559 65.2997 28.0022L67.3115 16.4874H73.2297L71.218 28.0423C70.8146 30.3142 71.5815 31.8539 73.5136 31.8539C75.6473 31.8539 77.0167 30.6377 77.9827 29.3388L80.2385 16.4849H86.1567L82.5739 37.0421L82.5689 37.0446Z" fill="black"/>
<path d="M90.5412 37.0445H84.623L90.0184 6.22876H95.9765L90.5412 37.0445Z" fill="black"/>
<path d="M98.6729 37.0445H92.7547L96.3375 16.4873H102.256L98.6729 37.0445ZM103.946 9.4736C103.946 11.7028 102.014 13.4883 99.9203 13.4883C98.028 13.4883 96.9002 12.3523 96.9002 10.5694C96.9002 8.34017 98.7526 6.51465 100.966 6.51465C102.858 6.51465 103.946 7.69071 103.946 9.4736Z" fill="black"/>
<path d="M25.3635 10.1206L21.5392 14.7421C20.0104 13.2827 17.8344 12.3499 14.9761 12.3499C12.1178 12.3499 9.86206 13.5661 9.86206 15.9182C9.86206 17.5406 11.1094 18.3505 14.8939 19.163C21.2553 20.4594 23.5086 23.1777 23.5086 27.1923C23.5086 34.2888 17.4709 37.5712 11.0273 37.5712C5.99541 37.5712 2.45244 35.9087 -0.00498199 33.3534L3.81934 28.6492C5.47007 30.7581 8.56986 31.9342 11.468 31.9342C14.8889 31.9342 17.2244 30.5149 17.2244 28.2455C17.2244 26.583 15.9371 25.6501 12.2323 24.8803C5.62941 23.461 3.69734 20.5823 3.69734 16.8936C3.69734 11.056 8.52753 6.71533 15.2525 6.71533C19.8411 6.71533 23.2248 8.21487 25.3585 10.1206H25.3635Z" fill="url(#paint0_linear_1_438)"/>
<path d="M28.5031 37.0445H22.5849L26.1677 16.4873H32.0859L28.5031 37.0445ZM33.7765 9.4736C33.7765 11.7028 31.8444 13.4883 29.7505 13.4883C27.8583 13.4883 26.7304 12.3523 26.7304 10.5694C26.7304 8.34017 28.5828 6.51465 30.7962 6.51465C32.6885 6.51465 33.7765 7.69071 33.7765 9.4736Z" fill="url(#paint1_linear_1_438)"/>
<path d="M51.1278 19.7722C52.4972 18.1899 55.0742 16.0835 58.0918 16.0835C63.2457 16.0835 65.2176 20.1784 64.2515 25.5722L62.2398 37.0469H56.3216L58.3333 25.5321C58.7366 23.2602 58.0121 21.6804 56.0377 21.6804C54.0633 21.6804 52.6167 22.8565 51.6084 24.1128C51.5685 24.5993 51.5287 25.0857 51.4465 25.5722L49.4348 37.0469H43.5166L45.5283 25.5321C45.9317 23.2602 45.247 21.6804 43.3149 21.6804C41.221 21.6804 39.8939 22.8966 38.8855 24.193L36.6298 37.0469H30.7116L34.2944 16.4897H39.6076L39.4856 18.7616C40.4915 17.6257 42.4659 16.086 45.364 16.086C48.2621 16.086 50.2763 17.5053 51.1204 19.7747L51.1278 19.7722Z" fill="url(#paint2_linear_1_438)"/>
<path d="M82.5689 37.0446H77.2557L77.3777 34.8153C76.3718 35.9513 74.3974 37.4508 71.4595 37.4508C66.3454 37.4508 64.3337 33.3559 65.2997 28.0022L67.3115 16.4874H73.2297L71.218 28.0423C70.8146 30.3142 71.5815 31.8539 73.5136 31.8539C75.6473 31.8539 77.0167 30.6377 77.9827 29.3388L80.2385 16.4849H86.1567L82.5739 37.0421L82.5689 37.0446Z" fill="url(#paint3_linear_1_438)"/>
<path d="M90.5412 37.0445H84.623L90.0184 6.22876H95.9765L90.5412 37.0445Z" fill="url(#paint4_linear_1_438)"/>
<path d="M98.6729 37.0445H92.7547L96.3375 16.4873H102.256L98.6729 37.0445ZM103.946 9.4736C103.946 11.7028 102.014 13.4883 99.9203 13.4883C98.028 13.4883 96.9002 12.3523 96.9002 10.5694C96.9002 8.34017 98.7526 6.51465 100.966 6.51465C102.858 6.51465 103.946 7.69071 103.946 9.4736Z" fill="url(#paint5_linear_1_438)"/>
<path d="M131.209 38H131.008L126.046 20.4017L114.904 38H114.702L105.736 0H115.815L118.803 16.8836L128.879 0H129.081L133.283 16.8836L142.15 0H153.443L131.209 38Z" fill="#8630E8"/>
<path d="M162.81 14.1805L163.771 11.4773H172.077L167.57 37.491H159.264L159.215 34.838C157.696 36.6234 155.062 38.0001 151.618 38.0001C145.844 38.0001 142.553 33.2056 142.553 27.0344C142.553 18.822 147.567 10.9683 156.329 10.9683C159.772 10.9683 161.901 12.3449 162.812 14.1805H162.81ZM152.024 25.8107C152.024 28.4111 153.291 29.8905 155.52 29.8905C157.494 29.8905 158.963 28.8198 159.977 27.4933L161.142 21.0663C160.534 20.0457 159.369 19.0778 157.395 19.0778C154.053 19.0778 152.027 22.1897 152.027 25.8107H152.024Z" fill="#8630E8"/>
<path d="M189.448 20.2487H188.689C185.803 20.2487 183.727 21.5251 182.205 23.0021L179.673 37.4884H170.354L174.913 11.4747H183.169L183.119 14.7897C184.79 12.6482 187.626 10.9631 191.072 10.9631L189.451 20.2462L189.448 20.2487Z" fill="#8630E8"/>
<path d="M213.758 24.0754L213.303 26.7285H196.945C196.895 28.8699 198.312 30.4021 200.744 30.4021C202.669 30.4021 204.544 29.4843 205.759 28.2079L211.582 33.6143C208.189 36.7764 204.442 38.0001 199.529 38.0001C192.187 38.0001 187.678 33.2056 187.78 26.5755C187.78 18.4133 194.263 10.9683 203.025 10.9683C211.281 10.9683 215.028 16.9865 213.761 24.0779L213.758 24.0754ZM197.856 21.4751H205.047C205.552 19.3336 204.793 17.5983 202.465 17.5983C199.982 17.5983 198.262 19.3837 197.856 21.4751Z" fill="#8630E8"/>
</g>
<defs>
<linearGradient id="paint0_linear_1_438" x1="-2.41387e-06" y1="21.9013" x2="103.946" y2="21.9013" gradientUnits="userSpaceOnUse">
<stop stop-color="#E8309E"/>
<stop offset="1" stop-color="#8630E8"/>
</linearGradient>
<linearGradient id="paint1_linear_1_438" x1="-6.62145e-06" y1="21.9012" x2="103.946" y2="21.9012" gradientUnits="userSpaceOnUse">
<stop stop-color="#E8309E"/>
<stop offset="1" stop-color="#8630E8"/>
</linearGradient>
<linearGradient id="paint2_linear_1_438" x1="-6.69234e-06" y1="21.9011" x2="103.946" y2="21.9011" gradientUnits="userSpaceOnUse">
<stop stop-color="#E8309E"/>
<stop offset="1" stop-color="#8630E8"/>
</linearGradient>
<linearGradient id="paint3_linear_1_438" x1="-3.17801e-05" y1="21.9013" x2="103.946" y2="21.9013" gradientUnits="userSpaceOnUse">
<stop stop-color="#E8309E"/>
<stop offset="1" stop-color="#8630E8"/>
</linearGradient>
<linearGradient id="paint4_linear_1_438" x1="-7.03603e-06" y1="21.9012" x2="103.946" y2="21.9012" gradientUnits="userSpaceOnUse">
<stop stop-color="#E8309E"/>
<stop offset="1" stop-color="#8630E8"/>
</linearGradient>
<linearGradient id="paint5_linear_1_438" x1="4.14287e-05" y1="21.9012" x2="103.946" y2="21.9012" gradientUnits="userSpaceOnUse">
<stop stop-color="#E8309E"/>
<stop offset="1" stop-color="#8630E8"/>
</linearGradient>
<clipPath id="clip0_1_438">
<rect width="214" height="38" fill="white"/>
</clipPath>
</defs>
</svg>
